
<svg width="420" height="420" viewBox="0 0 420 420" fill="none" xmlns="http://www.w3.org/2000/svg">
<path d="M174.19 106.74C157.925 113.152 143.204 121.781 129.611 132.028C114.79 143.188 101.894 155.937 91.2054 170.484C80.1187 185.555 71.5713 201.674 65.7126 219.007C55.7544 248.4 54.0283 278.167 60.9326 308.189C70.9406 351.799 95.2385 387.648 133.893 415.453C134.822 416.127 135.702 416.846 136.25 418C133.461 416.187 130.59 414.479 127.918 412.547C78.5918 377.102 48.3522 331.29 37.0663 275.351C30.7428 244.041 31.8216 212.82 40.1699 181.914C51.2234 141.001 72.6169 105.002 104.881 74.4856C116.864 63.16 130.125 53.1677 144.465 44.224C183.75 19.7001 227.184 6.53179 274.767 4.28464C294.999 3.32586 315.098 4.73407 334.898 8.61415C352.225 12.0148 369.088 16.7189 385.253 23.4453C388.158 24.6588 388.954 25.6026 387.427 28.464C373.951 53.7519 360.623 79.1147 347.362 104.508C346.151 106.815 345.138 107.084 342.566 106.051C290.734 85.3469 238.287 84.2383 185.293 102.26C184.049 102.68 182.87 103.294 181.659 103.818C174.19 106.725 180.845 104.493 174.19 106.725V106.74Z" fill="#C1D803"/>
<path d="M203.45 317.388C197.891 323.994 192.347 330.631 186.754 337.222C185.692 338.466 184.762 340.458 182.455 339.335C179.733 338.001 181.493 336.294 182.323 334.691C186.206 327.17 190.04 319.635 193.891 312.099C216.081 270.362 238.204 228.595 260.511 186.903C273.722 162.214 287.099 137.616 300.592 113.047C306.335 102.575 315.613 95.9983 328.84 95.3841C345.736 94.5901 358.101 107.519 356.275 123.324C355.495 130.065 352.142 135.698 347.86 141.061C313.77 183.832 278.701 225.959 243.897 268.25C230.42 284.624 216.927 301.013 203.45 317.388Z" fill="#1B1B1B"/>
<path d="M391.178 26.2917L267.398 92.2381L392.556 156.027L391.178 26.2917Z" fill="#1B1B1B"/>
</svg>
