<svg width="714" height="414" viewBox="0 0 714 414" fill="none" xmlns="http://www.w3.org/2000/svg">
<g clip-path="url(#clip0_1_2)">
<path d="M278.48 363.859V394.6H266.945V363.859L235.577 317.313H245.734C246.763 317.313 247.593 317.552 248.19 318.017C248.788 318.481 249.302 319.065 249.751 319.74L269.352 349.776C270.148 351.035 270.812 352.218 271.36 353.342C271.908 354.465 272.389 355.559 272.82 356.638C273.252 355.529 273.733 354.406 274.248 353.297C274.762 352.188 275.426 351.02 276.223 349.791L295.757 319.755C296.122 319.185 296.604 318.631 297.218 318.107C297.832 317.582 298.645 317.328 299.641 317.328H309.914L278.48 363.874V363.859Z" fill="#1B1B1B
"/>
<path d="M363.588 329.387C363.223 329.927 362.841 330.331 362.46 330.601C362.061 330.87 361.547 331.005 360.899 331.005C360.219 331.005 359.439 330.706 358.543 330.091C357.646 329.477 356.518 328.803 355.14 328.069C353.763 327.335 352.12 326.661 350.178 326.047C348.236 325.432 345.912 325.133 343.157 325.133C340.568 325.133 338.278 325.447 336.286 326.076C334.295 326.706 332.635 327.56 331.291 328.638C329.963 329.717 328.95 330.99 328.27 332.443C327.589 333.897 327.257 335.47 327.257 337.162C327.257 339.32 327.838 341.102 329.017 342.526C330.195 343.949 331.739 345.162 333.68 346.166C335.622 347.17 337.797 348.039 340.253 348.788C342.709 349.522 345.215 350.286 347.788 351.08C350.36 351.874 352.867 352.758 355.323 353.746C357.779 354.735 359.97 355.979 361.895 357.492C363.82 359.005 365.381 360.862 366.559 363.05C367.737 365.237 368.318 367.933 368.318 371.139C368.318 374.525 367.688 377.686 366.41 380.652C365.132 383.619 363.273 386.195 360.816 388.397C358.36 390.585 355.356 392.322 351.788 393.581C348.219 394.839 344.17 395.469 339.622 395.469C334.079 395.469 329.033 394.555 324.469 392.742C319.905 390.929 316.021 388.472 312.785 385.386L316.138 380.428C316.453 380.038 316.851 379.694 317.299 379.424C317.764 379.154 318.262 379.019 318.826 379.019C319.656 379.019 320.619 379.424 321.697 380.233C322.776 381.042 324.121 381.926 325.731 382.899C327.34 383.873 329.299 384.757 331.589 385.566C333.88 386.375 336.685 386.779 339.987 386.779C342.742 386.779 345.182 386.435 347.34 385.761C349.497 385.072 351.306 384.113 352.8 382.869C354.294 381.626 355.439 380.143 356.236 378.42C357.032 376.697 357.431 374.765 357.431 372.652C357.431 370.315 356.85 368.398 355.671 366.915C354.493 365.417 352.95 364.173 351.041 363.169C349.132 362.166 346.941 361.312 344.502 360.608C342.045 359.904 339.539 359.185 336.967 358.45C334.394 357.716 331.888 356.862 329.432 355.889C326.975 354.915 324.801 353.657 322.892 352.113C320.984 350.57 319.44 348.638 318.262 346.316C317.084 343.994 316.503 341.132 316.503 337.717C316.503 334.99 317.084 332.339 318.262 329.792C319.44 327.245 321.133 324.968 323.374 322.99C325.598 321.013 328.369 319.425 331.656 318.241C334.942 317.058 338.709 316.459 342.975 316.459C347.755 316.459 352.12 317.148 356.053 318.511C359.987 319.874 363.439 321.852 366.393 324.444L363.588 329.402V329.387Z" fill="#1B1B1B
"/>
<path d="M443.419 378.63C444.05 378.63 444.631 378.87 445.145 379.334L449.693 383.813C446.191 387.484 441.942 390.345 436.93 392.382C431.918 394.42 425.91 395.453 418.856 395.453C412.682 395.453 407.089 394.495 402.06 392.562C397.048 390.645 392.766 387.948 389.214 384.472C385.662 380.997 382.924 376.847 380.965 371.993C379.007 367.139 378.044 361.806 378.044 355.979C378.044 350.151 379.09 344.818 381.181 339.964C383.272 335.11 386.21 330.945 389.994 327.455C393.778 323.964 398.309 321.268 403.587 319.335C408.865 317.417 414.69 316.444 421.063 316.444C427.437 316.444 432.781 317.328 437.345 319.08C441.909 320.848 445.959 323.23 449.51 326.256L445.743 331.05C445.461 331.41 445.145 331.709 444.78 331.934C444.415 332.174 443.901 332.279 443.22 332.279C442.706 332.279 442.158 332.114 441.577 331.769C440.996 331.425 440.316 331.005 439.519 330.496C438.722 329.987 437.793 329.447 436.714 328.878C435.635 328.309 434.357 327.769 432.897 327.26C431.42 326.766 429.71 326.331 427.752 325.987C425.793 325.642 423.553 325.477 420.997 325.477C416.416 325.477 412.217 326.181 408.416 327.605C404.616 329.028 401.33 331.05 398.591 333.672C395.836 336.294 393.695 339.499 392.168 343.275C390.641 347.05 389.861 351.275 389.861 355.949C389.861 360.623 390.625 365.057 392.168 368.832C393.695 372.607 395.786 375.798 398.442 378.405C401.097 381.012 404.234 383.004 407.852 384.368C411.47 385.731 415.387 386.42 419.57 386.42C422.126 386.42 424.416 386.285 426.441 386.015C428.466 385.746 430.358 385.326 432.084 384.742C433.81 384.158 435.436 383.439 436.93 382.555C438.424 381.671 439.934 380.622 441.444 379.394C442.125 378.855 442.772 378.585 443.419 378.585V378.63Z" fill="#1B1B1B
"/>
<path d="M544.445 355.979C544.445 361.761 543.432 367.079 541.391 371.918C539.366 376.757 536.495 380.922 532.794 384.398C529.093 387.888 524.645 390.585 519.433 392.517C514.238 394.435 508.496 395.409 502.189 395.409C495.882 395.409 490.156 394.45 484.978 392.517C479.8 390.6 475.352 387.888 471.651 384.398C467.95 380.907 465.078 376.742 463.054 371.918C461.029 367.079 460 361.776 460 355.979C460 350.181 461.012 344.878 463.054 340.039C465.078 335.2 467.95 331.035 471.651 327.53C475.352 324.024 479.8 321.298 484.978 319.365C490.156 317.417 495.899 316.459 502.189 316.459C508.479 316.459 514.222 317.432 519.433 319.365C524.628 321.313 529.076 324.024 532.794 327.53C536.495 331.035 539.366 335.2 541.391 340.039C543.416 344.878 544.445 350.181 544.445 355.979ZM532.561 355.979C532.561 351.23 531.848 346.975 530.404 343.2C528.977 339.425 526.935 336.234 524.313 333.627C521.69 331.02 518.504 329.013 514.753 327.62C511.002 326.211 506.82 325.522 502.206 325.522C497.592 325.522 493.459 326.226 489.725 327.62C485.974 329.028 482.787 331.02 480.132 333.627C477.476 336.234 475.435 339.425 474.008 343.2C472.58 346.975 471.85 351.23 471.85 355.979C471.85 360.728 472.564 364.982 474.008 368.727C475.435 372.488 477.476 375.664 480.132 378.27C482.787 380.877 485.974 382.869 489.725 384.263C493.476 385.641 497.625 386.345 502.206 386.345C506.786 386.345 511.002 385.656 514.753 384.263C518.504 382.884 521.69 380.892 524.313 378.27C526.935 375.664 528.977 372.488 530.404 368.727C531.831 364.967 532.561 360.713 532.561 355.979Z" fill="#1B1B1B
"/>
<path d="M573.008 362.345V394.6H561.473V317.313H585.672C591.082 317.313 595.763 317.807 599.713 318.796C603.663 319.784 606.916 321.223 609.488 323.08C612.061 324.953 613.953 327.2 615.198 329.852C616.426 332.488 617.056 335.455 617.056 338.72C617.056 341.447 616.575 344.009 615.629 346.376C614.667 348.743 613.289 350.885 611.48 352.773C609.671 354.66 607.463 356.263 604.841 357.597C602.235 358.93 599.281 359.934 595.962 360.623C597.389 361.372 598.667 362.48 599.779 363.919L624.757 394.6H614.484C612.376 394.6 610.816 393.866 609.82 392.382L587.597 364.772C586.916 363.904 586.186 363.289 585.39 362.915C584.593 362.54 583.398 362.345 581.805 362.345H573.025H573.008ZM573.008 354.735H585.141C588.526 354.735 591.497 354.361 594.07 353.627C596.642 352.892 598.783 351.844 600.526 350.496C602.252 349.147 603.563 347.544 604.443 345.672C605.322 343.799 605.754 341.732 605.754 339.47C605.754 334.87 604.078 331.395 600.708 329.058C597.339 326.721 592.327 325.552 585.688 325.552H573.025V354.735H573.008Z" fill="#1B1B1B
"/>
<path d="M690 317.313V325.837H648.889V351.514H682.166V359.709H648.889V386.075H690V394.6H637.238V317.313H690Z" fill="#1B1B1B
"/>
<path d="M141.19 102.74C124.925 109.152 110.204 117.781 96.6107 128.028C81.7897 139.189 68.8939 151.937 58.2054 166.484C47.1187 181.555 38.5713 197.674 32.7125 215.007C22.7544 244.4 21.0283 274.167 27.9326 304.189C37.9406 347.799 62.2385 383.648 100.893 411.453C101.822 412.127 102.702 412.846 103.25 414C100.461 412.187 97.59 410.479 94.9178 408.547C45.5918 373.102 15.3522 327.29 4.06625 271.351C-2.25719 240.041 -1.17839 208.82 7.16987 177.914C18.2234 137.001 39.6169 101.002 71.8813 70.4856C83.8643 59.16 97.1253 49.1677 111.465 40.224C150.75 15.7001 194.184 2.53179 241.767 0.284643C261.999 -0.674141 282.098 0.734073 301.898 4.61415C319.225 8.01484 336.088 12.7189 352.253 19.4453C355.158 20.6588 355.954 21.6026 354.427 24.464C340.951 49.7519 327.623 75.1147 314.362 100.508C313.151 102.815 312.138 103.084 309.566 102.051C257.734 81.3469 205.287 80.2383 152.293 98.2604C151.049 98.6799 149.87 99.2941 148.659 99.8184C141.19 102.725 147.845 100.493 141.19 102.725V102.74Z" fill="#40E9BB
"/>
<path d="M170.45 313.388C164.891 319.994 159.347 326.631 153.754 333.222C152.692 334.466 151.762 336.458 149.455 335.335C146.733 334.001 148.493 332.294 149.323 330.691C153.206 323.17 157.04 315.635 160.891 308.099C183.081 266.362 205.204 224.595 227.511 182.903C240.722 158.214 254.099 133.616 267.592 109.047C273.335 98.575 282.613 91.9983 295.84 91.3841C312.736 90.5901 325.101 103.519 323.275 119.324C322.495 126.065 319.142 131.698 314.86 137.061C280.77 179.832 245.701 221.959 210.897 264.25C197.42 280.624 183.927 297.013 170.45 313.388Z" fill="#1B1B1B
"/>
<path d="M358.178 22.2917L234.398 88.2381L359.556 152.027L358.178 22.2917Z" fill="#1B1B1B
"/>
</g>
<defs>
<clipPath id="clip0_1_2">
<rect width="714" height="414" fill="white"/>
</clipPath>
</defs>
</svg>